<?xml version="1.0" encoding="UTF-8" standalone="no"?>
<!DOCTYPE svg PUBLIC "-//W3C//DTD SVG 1.1//EN" "http://www.w3.org/Graphics/SVG/1.1/DTD/svg11.dtd">
<svg width="100%" height="100%" viewBox="0 0 512 512" version="1.1" xmlns="http://www.w3.org/2000/svg" xmlns:xlink="http://www.w3.org/1999/xlink" xml:space="preserve" xmlns:serif="http://www.serif.com/" style="fill-rule:evenodd;clip-rule:evenodd;stroke-linejoin:round;stroke-miterlimit:2;">
    <g transform="matrix(0.960795,-1.17663e-16,-1.17663e-16,-0.960795,10.0367,501.958)">
        <g>
            <path d="M469.491,149.441L326.624,6.378C318.134,-2.133 304.39,-2.112 295.901,6.356C287.411,14.824 287.411,28.568 295.879,37.079L401.966,143.296L184.451,143.296C102.943,143.296 36.438,209.606 36.155,291.179L36.155,490.282C36.155,502.289 45.86,511.994 57.867,511.994C69.874,511.994 79.579,502.289 79.579,490.282L79.579,291.245C79.774,233.599 126.825,186.722 184.45,186.722L401.531,186.722L295.857,292.526C287.389,301.037 287.389,314.76 295.879,323.249C300.113,327.461 305.671,329.589 311.23,329.589C316.788,329.589 322.368,327.461 326.602,323.227L469.47,180.142C477.959,171.653 477.959,157.909 469.491,149.441Z" style="fill-rule:nonzero;"/>
        </g>
    </g>
</svg>
